<svg id="Layer_1" data-name="Layer 1" xmlns="http://www.w3.org/2000/svg" viewBox="0 0 251.3 67.43"><defs><style>.cls-1{fill:#fff;}.cls-2{fill:#f90;fill-rule:evenodd;}</style></defs><title>AWS</title><path class="cls-1" d="M31.78,24.48a10.74,10.74,0,0,0,.42,3.34,17.69,17.69,0,0,0,1.22,2.7,1.76,1.76,0,0,1,.26.85A1.43,1.43,0,0,1,33,32.48L30.6,34.06a1.88,1.88,0,0,1-1,.33,1.57,1.57,0,0,1-1.11-.53,8.12,8.12,0,0,1-1.35-1.74c-.37-.63-.75-1.36-1.15-2.19a13.86,13.86,0,0,1-11,5.18A10.25,10.25,0,0,1,7.5,32.42,9.61,9.61,0,0,1,4.74,25.2a9.67,9.67,0,0,1,3.41-7.71q3.42-2.92,9.19-2.92a29.12,29.12,0,0,1,4,.29c1.38.2,2.81.47,4.3.82V12.93q0-4.27-1.77-6T17.73,5.18a17.29,17.29,0,0,0-4,.5A27.09,27.09,0,0,0,9.66,7a11.27,11.27,0,0,1-1.31.49,3.1,3.1,0,0,1-.59.1c-.53,0-.79-.4-.79-1.18V4.53a2.5,2.5,0,0,1,.26-1.31,2.69,2.69,0,0,1,1-.79A24.33,24.33,0,0,1,13,.72,23,23,0,0,1,18.85,0q6.69,0,9.81,3.05t3.12,9.22ZM16.55,30.19a12,12,0,0,0,3.87-.69A8.2,8.2,0,0,0,24,27.1a6,6,0,0,0,1.28-2.39,12.74,12.74,0,0,0,.36-3.25V19.88a31.64,31.64,0,0,0-3.45-.62A28.32,28.32,0,0,0,18.65,19q-3.73,0-5.57,1.51a5.28,5.28,0,0,0-1.84,4.33,5.29,5.29,0,0,0,1.38,4A5.37,5.37,0,0,0,16.55,30.19Zm30.12,4.07a2.35,2.35,0,0,1-1.44-.36,3,3,0,0,1-.79-1.48l-8.79-29a6.56,6.56,0,0,1-.33-1.51A.82.82,0,0,1,36.24,1h3.68a2.3,2.3,0,0,1,1.47.37,3.08,3.08,0,0,1,.76,1.47l6.3,24.81L54.29,2.82A2.57,2.57,0,0,1,55,1.35,2.46,2.46,0,0,1,56.52,1h3a2.48,2.48,0,0,1,1.51.37,2.7,2.7,0,0,1,.72,1.47L67.67,28l6.5-25.14a3.08,3.08,0,0,1,.76-1.47A2.28,2.28,0,0,1,76.4,1h3.48a.82.82,0,0,1,.92.92,2.55,2.55,0,0,1-.07.59,7.39,7.39,0,0,1-.26.92l-9,29a3,3,0,0,1-.79,1.48,2.36,2.36,0,0,1-1.45.36H66a2.26,2.26,0,0,1-1.51-.4,2.75,2.75,0,0,1-.72-1.51L57.9,8.2,52.12,32.35a2.75,2.75,0,0,1-.72,1.51,2.28,2.28,0,0,1-1.51.4Zm48.17,1a25.21,25.21,0,0,1-5.77-.66,16.42,16.42,0,0,1-4.33-1.51,2.44,2.44,0,0,1-1.15-1,2.57,2.57,0,0,1-.23-1V29.07c0-.79.28-1.18.85-1.18a2,2,0,0,1,.69.13c.24.09.56.22.95.4A20.67,20.67,0,0,0,90,29.73a22.43,22.43,0,0,0,4.46.46,10.13,10.13,0,0,0,5.48-1.25,4,4,0,0,0,1.94-3.54,3.63,3.63,0,0,0-1-2.63,9.81,9.81,0,0,0-3.77-2l-5.45-1.7a11.69,11.69,0,0,1-6-3.81,8.93,8.93,0,0,1-1.87-5.45,8.3,8.3,0,0,1,1-4.16,10.2,10.2,0,0,1,2.69-3.09A11.82,11.82,0,0,1,91.37.66,16.52,16.52,0,0,1,96.09,0a21.9,21.9,0,0,1,2.53.16c.85.11,1.66.26,2.43.43s1.47.37,2.13.59a9.51,9.51,0,0,1,1.57.66,3.41,3.41,0,0,1,1.12.92A2.07,2.07,0,0,1,106.2,4V5.77c0,.79-.29,1.19-.86,1.19a4.16,4.16,0,0,1-1.44-.46,17.47,17.47,0,0,0-7.22-1.45,9.86,9.86,0,0,0-5,1,3.61,3.61,0,0,0-1.77,3.35A3.54,3.54,0,0,0,91,12.11a11.18,11.18,0,0,0,4.13,2.07l5.32,1.7a11.52,11.52,0,0,1,5.81,3.61A8.51,8.51,0,0,1,108,24.74a9.42,9.42,0,0,1-1,4.36,9.9,9.9,0,0,1-2.72,3.32,12.21,12.21,0,0,1-4.17,2.1A18.65,18.65,0,0,1,94.84,35.24Z"/><path class="cls-2" d="M101.94,53.48c-12.35,9.11-30.25,14-45.66,14A82.63,82.63,0,0,1,.5,46.16c-1.16-1-.13-2.47,1.26-1.66A112.32,112.32,0,0,0,57.57,59.3a111,111,0,0,0,42.57-8.71C102.23,49.71,104,52,101.94,53.48Z"/><path class="cls-2" d="M107.07,47.61c-1.58-2-10.43-1-14.41-.48-1.21.14-1.4-.91-.31-1.67,7.07-5,18.65-3.53,20-1.87s-.35,13.29-7,18.83c-1,.85-2,.39-1.53-.73C105.32,58,108.66,49.63,107.07,47.61Z"/><path class="cls-1" d="M137.47,32.91a5.42,5.42,0,0,1-3.95-1.42,5.06,5.06,0,0,1-1.45-3.8,5.12,5.12,0,0,1,1.8-4.14A7.35,7.35,0,0,1,138.76,22a17.86,17.86,0,0,1,5.15.83v-3a4.13,4.13,0,0,0-1-3.15,5.11,5.11,0,0,0-3.46-1,17.35,17.35,0,0,0-5.26.9,1.78,1.78,0,0,1-.54.11c-.24,0-.36-.16-.36-.47V15.7a.83.83,0,0,1,.11-.45.89.89,0,0,1,.36-.27,16.4,16.4,0,0,1,6-1.11,7,7,0,0,1,4.7,1.33,5.06,5.06,0,0,1,1.53,4V32a.48.48,0,0,1-.54.54h-.75a.52.52,0,0,1-.58-.54L144,30.43A10.28,10.28,0,0,1,137.47,32.91Zm.28-1.87a9,9,0,0,0,3-.56,16.5,16.5,0,0,0,3.2-1.56v-4.5a17.7,17.7,0,0,0-4.68-.65c-3.36,0-5,1.29-5,3.89a3.35,3.35,0,0,0,.9,2.52A3.73,3.73,0,0,0,137.75,31Z"/><path class="cls-1" d="M159.07,32.91q-4.19,0-6.34-2.39c-1.44-1.6-2.16-3.94-2.16-7s.73-5.42,2.2-7A8.13,8.13,0,0,1,159.14,14a10.47,10.47,0,0,1,3.78.69c.29.09.43.34.43.75V16c0,.31-.14.46-.43.46l-.27,0-.52-.11a11.84,11.84,0,0,0-2.88-.36q-3.42,0-4.95,1.75c-1,1.16-1.53,3-1.53,5.59v.44q0,3.74,1.54,5.52A6.12,6.12,0,0,0,159.17,31a12.22,12.22,0,0,0,3.14-.46l.55-.15.27,0c.29,0,.44.15.44.46v.51a.75.75,0,0,1-.4.75A10.4,10.4,0,0,1,159.07,32.91Z"/><path class="cls-1" d="M173.32,32.73a4.36,4.36,0,0,1-3.24-1.13A4.54,4.54,0,0,1,169,28.3V16.21h-2.85a.48.48,0,0,1-.54-.54v-.36a.71.71,0,0,1,.11-.43.58.58,0,0,1,.43-.18l2.92-.26.25-4.75a.68.68,0,0,1,.16-.41.5.5,0,0,1,.38-.13h.65a.48.48,0,0,1,.54.54v4.72h5.22a.48.48,0,0,1,.54.54v.72a.48.48,0,0,1-.54.54H171v12a2.81,2.81,0,0,0,.63,2.08,2.94,2.94,0,0,0,2.1.62,8.37,8.37,0,0,0,1.84-.18l.63-.13a1.43,1.43,0,0,1,.34-.05c.26,0,.4.14.4.43v.54c0,.41-.14.66-.4.75A10,10,0,0,1,173.32,32.73Z"/><path class="cls-1" d="M182,10.52a1.47,1.47,0,0,1-1.13-.43,1.58,1.58,0,0,1-.42-1.15,1.6,1.6,0,0,1,.42-1.16A1.51,1.51,0,0,1,182,7.35a1.55,1.55,0,0,1,1.14.43,1.64,1.64,0,0,1,.41,1.16,1.62,1.62,0,0,1-.41,1.15A1.51,1.51,0,0,1,182,10.52Zm-.5,22a.48.48,0,0,1-.54-.54V15a.48.48,0,0,1,.54-.54h1A.48.48,0,0,1,183,15V32a.48.48,0,0,1-.54.54Z"/><path class="cls-1" d="M194.06,32.52a.72.72,0,0,1-.69-.51L186.6,15.27a1.84,1.84,0,0,1-.14-.47c0-.26.14-.39.43-.39H188a.59.59,0,0,1,.62.47l6.05,15.51,6-15.51a.59.59,0,0,1,.61-.47h1.08c.29,0,.44.13.44.39a1.62,1.62,0,0,1-.15.47L196,32a.71.71,0,0,1-.68.51Z"/><path class="cls-1" d="M210.47,32.91a5.4,5.4,0,0,1-3.94-1.42,5.07,5.07,0,0,1-1.46-3.8,5.12,5.12,0,0,1,1.8-4.14,7.36,7.36,0,0,1,4.9-1.51,17.92,17.92,0,0,1,5.15.83v-3a4.1,4.1,0,0,0-1-3.15,5.08,5.08,0,0,0-3.45-1,17.25,17.25,0,0,0-5.26.9,1.9,1.9,0,0,1-.54.11c-.24,0-.36-.16-.36-.47V15.7a.83.83,0,0,1,.11-.45.89.89,0,0,1,.36-.27,16.36,16.36,0,0,1,6-1.11,7,7,0,0,1,4.7,1.33,5.06,5.06,0,0,1,1.53,4V32a.48.48,0,0,1-.54.54h-.76a.51.51,0,0,1-.57-.54L217,30.43A10.24,10.24,0,0,1,210.47,32.91Zm.29-1.87a9,9,0,0,0,3-.56,16.3,16.3,0,0,0,3.21-1.56v-4.5a17.7,17.7,0,0,0-4.68-.65c-3.36,0-5,1.29-5,3.89a3.35,3.35,0,0,0,.9,2.52A3.72,3.72,0,0,0,210.76,31Z"/><path class="cls-1" d="M230.09,32.73a4.39,4.39,0,0,1-3.24-1.13,4.54,4.54,0,0,1-1.11-3.3V16.21h-2.85a.48.48,0,0,1-.54-.54v-.36a.71.71,0,0,1,.11-.43.58.58,0,0,1,.43-.18l2.92-.26.25-4.75a.68.68,0,0,1,.16-.41.5.5,0,0,1,.38-.13h.65a.48.48,0,0,1,.54.54v4.72H233a.48.48,0,0,1,.54.54v.72a.48.48,0,0,1-.54.54h-5.22v12a2.81,2.81,0,0,0,.63,2.08,2.94,2.94,0,0,0,2.1.62,8.37,8.37,0,0,0,1.84-.18l.63-.13a1.43,1.43,0,0,1,.34-.05c.27,0,.4.14.4.43v.54c0,.41-.13.66-.4.75A10,10,0,0,1,230.09,32.73Z"/><path class="cls-1" d="M244.85,33.06q-4.28,0-6.44-2.43t-2.16-7.22c0-3,.72-5.37,2.18-7a7.64,7.64,0,0,1,6.1-2.5,6.52,6.52,0,0,1,5,1.87,7.6,7.6,0,0,1,1.75,5.36,11.46,11.46,0,0,1-.15,2.16.58.58,0,0,1-.61.54h-12.2q0,3.78,1.65,5.58a6.41,6.41,0,0,0,5,1.8,13.6,13.6,0,0,0,4.93-.9,2.21,2.21,0,0,1,.65-.18.34.34,0,0,1,.25.13.47.47,0,0,1,.11.31v.54a.75.75,0,0,1-.4.75A13.09,13.09,0,0,1,244.85,33.06Zm4.43-10.91c0-.34,0-.73,0-1.19A5.48,5.48,0,0,0,248.06,17a4.87,4.87,0,0,0-3.71-1.34q-5.68,0-6,6.45Z"/></svg>