<svg id="Layer_1" data-name="Layer 1" xmlns="http://www.w3.org/2000/svg" viewBox="0 0 502.59 134.87"><defs><style>.cls-1{fill:#fff;}.cls-2{fill:#f90;fill-rule:evenodd;}</style></defs><title>AWS</title><path class="cls-1" d="M63.56,49a21.22,21.22,0,0,0,.85,6.69A35.11,35.11,0,0,0,66.84,61a3.46,3.46,0,0,1,.52,1.71A2.88,2.88,0,0,1,65.92,65l-4.73,3.15a3.7,3.7,0,0,1-2,.65,3.13,3.13,0,0,1-2.23-1,17.7,17.7,0,0,1-2.69-3.48c-.74-1.27-1.51-2.74-2.29-4.4A27.75,27.75,0,0,1,30,70.22q-9.45,0-15-5.38T9.48,50.4q0-9.59,6.83-15.42t18.37-5.84a55.17,55.17,0,0,1,7.94.59c2.76.39,5.62.94,8.6,1.64V25.86q0-8.53-3.54-12T35.47,10.37a35,35,0,0,0-8.07,1,58.33,58.33,0,0,0-8.08,2.56,19.72,19.72,0,0,1-2.62,1,5.32,5.32,0,0,1-1.18.19c-1,0-1.58-.78-1.58-2.36V9.06a4.93,4.93,0,0,1,.53-2.63,5.41,5.41,0,0,1,2.1-1.57A48.72,48.72,0,0,1,26,1.44,46,46,0,0,1,37.7,0Q51.08,0,57.32,6.1t6.24,18.44ZM33.11,60.38A24.08,24.08,0,0,0,40.85,59a16.49,16.49,0,0,0,7.09-4.79,12,12,0,0,0,2.56-4.79,25.47,25.47,0,0,0,.72-6.5V39.77a64.39,64.39,0,0,0-6.89-1.25,56.89,56.89,0,0,0-7-.46q-7.49,0-11.16,3t-3.68,8.66q0,5.25,2.76,7.94C27.07,59.48,29.69,60.38,33.11,60.38Zm60.24,8.13a4.69,4.69,0,0,1-2.89-.72,5.81,5.81,0,0,1-1.57-3L71.3,6.83a13.43,13.43,0,0,1-.66-3A1.62,1.62,0,0,1,72.48,2h7.35a4.63,4.63,0,0,1,3,.72,6.3,6.3,0,0,1,1.51,2.95l12.6,49.62L108.57,5.64A5.3,5.3,0,0,1,110,2.69,5,5,0,0,1,113,2h6a5,5,0,0,1,3,.72,5.3,5.3,0,0,1,1.45,2.95l11.81,50.27,13-50.27a6.3,6.3,0,0,1,1.51-2.95,4.66,4.66,0,0,1,3-.72h6.95a1.62,1.62,0,0,1,1.84,1.84A5.89,5.89,0,0,1,161.47,5a15.71,15.71,0,0,1-.53,1.84l-18.11,58a5.89,5.89,0,0,1-1.57,3,4.71,4.71,0,0,1-2.89.72h-6.43a4.66,4.66,0,0,1-3-.78,5.72,5.72,0,0,1-1.45-3l-11.68-48.3-11.55,48.3a5.72,5.72,0,0,1-1.44,3,4.66,4.66,0,0,1-3,.78Zm96.34,2a51.07,51.07,0,0,1-11.55-1.31,33.43,33.43,0,0,1-8.67-3,4.36,4.36,0,0,1-2.75-4.2V58.14c0-1.57.57-2.36,1.71-2.36a4.13,4.13,0,0,1,1.37.26c.48.18,1.12.44,1.91.79A39.33,39.33,0,0,0,180,59.46a44.38,44.38,0,0,0,8.93.92q7.08,0,11-2.5a8,8,0,0,0,3.87-7.09,7.27,7.27,0,0,0-2-5.25q-2-2.1-7.55-3.93l-10.89-3.42q-8.28-2.62-12-7.61a17.72,17.72,0,0,1-3.74-10.89,16.67,16.67,0,0,1,2-8.34,20.35,20.35,0,0,1,5.38-6.17,24,24,0,0,1,7.81-3.87A33.46,33.46,0,0,1,192.18,0a39.39,39.39,0,0,1,5,.33c1.71.22,3.33.5,4.86.85s2.95.75,4.27,1.18a20.18,20.18,0,0,1,3.15,1.31,7.28,7.28,0,0,1,2.23,1.84,4.31,4.31,0,0,1,.65,2.5v3.54c0,1.57-.57,2.36-1.7,2.36A7.76,7.76,0,0,1,207.8,13a35,35,0,0,0-14.44-2.88q-6.44,0-10,2.1a7.21,7.21,0,0,0-3.55,6.69,7.17,7.17,0,0,0,2.23,5.32q2.24,2.16,8.27,4.13L201,31.76q8.15,2.62,11.62,7.22a16.94,16.94,0,0,1,3.48,10.5,19,19,0,0,1-2,8.73,19.87,19.87,0,0,1-5.45,6.63,24.55,24.55,0,0,1-8.33,4.2A37.28,37.28,0,0,1,189.69,70.48Z"/><path class="cls-2" d="M203.87,107c-24.69,18.23-60.49,27.92-91.32,27.92A165.24,165.24,0,0,1,1,92.31C-1.31,90.22.75,87.37,3.53,89c31.76,18.48,71,29.62,111.62,29.62a221.91,221.91,0,0,0,85.13-17.43C204.46,99.41,208,103.93,203.87,107Z"/><path class="cls-2" d="M214.15,95.22c-3.16-4-20.88-1.91-28.84-1-2.41.29-2.78-1.82-.61-3.34,14.13-9.93,37.29-7.07,40-3.74s-.72,26.57-14,37.65c-2,1.71-4,.8-3.07-1.45C210.64,115.93,217.31,99.27,214.15,95.22Z"/><path class="cls-1" d="M274.93,65.82A10.78,10.78,0,0,1,267.05,63a10.1,10.1,0,0,1-2.92-7.6,10.25,10.25,0,0,1,3.6-8.28q3.6-3,9.79-3a35.44,35.44,0,0,1,10.3,1.66V39.69q0-4.39-2.09-6.3t-6.91-1.91a34.53,34.53,0,0,0-10.51,1.8,3.68,3.68,0,0,1-1.08.22c-.48,0-.72-.32-.72-.94V31.41a1.62,1.62,0,0,1,.21-.9,1.59,1.59,0,0,1,.72-.54,32.62,32.62,0,0,1,12-2.23q6.33,0,9.39,2.66c2,1.78,3.06,4.46,3.06,8.06V64A1,1,0,0,1,290.84,65h-1.51A1,1,0,0,1,288.18,64l-.29-3.09A20.46,20.46,0,0,1,274.93,65.82Zm.58-3.74a17.69,17.69,0,0,0,5.9-1.12,32.3,32.3,0,0,0,6.41-3.13v-9a36.22,36.22,0,0,0-9.36-1.29q-10.08,0-10.08,7.77a6.66,6.66,0,0,0,1.8,5A7.43,7.43,0,0,0,275.51,62.08Z"/><path class="cls-1" d="M318.13,65.82q-8.36,0-12.67-4.78T301.14,47q0-9.21,4.39-14.08T318.28,28a21.19,21.19,0,0,1,7.56,1.37,1.4,1.4,0,0,1,.86,1.51v1c0,.63-.29.94-.86.94a2.35,2.35,0,0,1-.54-.07l-1.05-.22a23.67,23.67,0,0,0-5.76-.72q-6.84,0-9.9,3.49t-3.06,11.2v.86q0,7.49,3.1,11T318.35,62a23.9,23.9,0,0,0,6.26-.94l1.12-.29a3.07,3.07,0,0,1,.54-.07c.57,0,.86.32.86.94v1a1.49,1.49,0,0,1-.79,1.51A21.16,21.16,0,0,1,318.13,65.82Z"/><path class="cls-1" d="M346.64,65.46q-4.25,0-6.48-2.26c-1.49-1.52-2.23-3.71-2.23-6.59V32.42h-5.69a1,1,0,0,1-1.08-1.08v-.72a1.41,1.41,0,0,1,.22-.87,1.21,1.21,0,0,1,.86-.36l5.83-.5.51-9.51a1.39,1.39,0,0,1,.32-.82,1,1,0,0,1,.76-.26H341A1,1,0,0,1,342,19.38v9.44h10.44a1,1,0,0,1,1.08,1.08v1.44a1,1,0,0,1-1.08,1.08H342v24c0,2,.42,3.36,1.26,4.18s2.25,1.22,4.22,1.22a16.71,16.71,0,0,0,3.67-.36c.53-.09.95-.18,1.26-.25a3.64,3.64,0,0,1,.68-.11c.53,0,.79.29.79.87V63c0,.81-.26,1.32-.79,1.51A20.59,20.59,0,0,1,346.64,65.46Z"/><path class="cls-1" d="M363.92,21a3,3,0,0,1-2.27-.86,3.22,3.22,0,0,1-.82-2.31,3.18,3.18,0,0,1,.82-2.3,3.4,3.4,0,0,1,4.54,0,3.18,3.18,0,0,1,.83,2.3,3.22,3.22,0,0,1-.83,2.31A3,3,0,0,1,363.92,21Zm-1,44A1,1,0,0,1,361.83,64V29.9a1,1,0,0,1,1.09-1.08h1.94a1,1,0,0,1,1.08,1.08V64A1,1,0,0,1,364.86,65Z"/><path class="cls-1" d="M388.11,65a1.41,1.41,0,0,1-1.36-1L373.21,30.54a3.51,3.51,0,0,1-.29-.93c0-.53.29-.79.87-.79h2.3a1.18,1.18,0,0,1,1.22.93l12.1,31,12.1-31a1.18,1.18,0,0,1,1.22-.93h2.16c.58,0,.86.26.86.79a3.34,3.34,0,0,1-.28.93L391.93,64a1.43,1.43,0,0,1-1.37,1Z"/><path class="cls-1" d="M421,65.82A10.78,10.78,0,0,1,413.06,63a10.14,10.14,0,0,1-2.92-7.6,10.23,10.23,0,0,1,3.61-8.28q3.58-3,9.79-3a35.43,35.43,0,0,1,10.29,1.66V39.69q0-4.39-2.08-6.3c-1.4-1.27-3.7-1.91-6.92-1.91a34.58,34.58,0,0,0-10.51,1.8,3.68,3.68,0,0,1-1.08.22c-.48,0-.72-.32-.72-.94V31.41a1.54,1.54,0,0,1,.22-.9,1.49,1.49,0,0,1,.72-.54,32.56,32.56,0,0,1,12-2.23q6.33,0,9.4,2.66c2,1.78,3.06,4.46,3.06,8.06V64A1,1,0,0,1,436.86,65h-1.52A1,1,0,0,1,434.19,64l-.28-3.09A20.46,20.46,0,0,1,421,65.82Zm.57-3.74a17.69,17.69,0,0,0,5.9-1.12,32,32,0,0,0,6.41-3.13v-9a36.1,36.1,0,0,0-9.36-1.29q-10.08,0-10.08,7.77a6.66,6.66,0,0,0,1.8,5A7.43,7.43,0,0,0,421.52,62.08Z"/><path class="cls-1" d="M460.19,65.46q-4.26,0-6.48-2.26c-1.49-1.52-2.24-3.71-2.24-6.59V32.42h-5.68a1,1,0,0,1-1.08-1.08v-.72a1.49,1.49,0,0,1,.21-.87,1.24,1.24,0,0,1,.87-.36l5.83-.5.5-9.51a1.39,1.39,0,0,1,.33-.82,1,1,0,0,1,.75-.26h1.3a1,1,0,0,1,1.08,1.08v9.44H466a1,1,0,0,1,1.08,1.08v1.44A1,1,0,0,1,466,32.42H455.58v24c0,2,.42,3.36,1.26,4.18s2.24,1.22,4.21,1.22a16.65,16.65,0,0,0,3.67-.36c.53-.09.95-.18,1.26-.25a3.59,3.59,0,0,1,.69-.11c.52,0,.79.29.79.87V63c0,.81-.27,1.32-.79,1.51A20.68,20.68,0,0,1,460.19,65.46Z"/><path class="cls-1" d="M489.71,66.11q-8.58,0-12.89-4.86T472.5,46.82q0-9.07,4.35-14.08t12.21-5q6.54,0,10,3.74t3.49,10.73a24.2,24.2,0,0,1-.28,4.32,1.17,1.17,0,0,1-1.23,1.08H476.67q.07,7.56,3.32,11.16t10,3.6a27.26,27.26,0,0,0,9.87-1.8,4.39,4.39,0,0,1,1.29-.36.66.66,0,0,1,.51.25.92.92,0,0,1,.21.61v1.08a1.48,1.48,0,0,1-.79,1.51A26.17,26.17,0,0,1,489.71,66.11Zm8.85-21.81c.05-.67.07-1.47.07-2.38,0-3.46-.84-6.07-2.52-7.85s-4.15-2.66-7.41-2.66q-11.38,0-12,12.89Z"/></svg>