<?xml version="1.0" standalone="no"?>
<!DOCTYPE svg PUBLIC "-//W3C//DTD SVG 20010904//EN"
 "http://www.w3.org/TR/2001/REC-SVG-20010904/DTD/svg10.dtd">
<svg version="1.0" xmlns="http://www.w3.org/2000/svg"
 width="1080.000000pt" height="1080.000000pt" viewBox="0 0 1080.000000 1080.000000"
 preserveAspectRatio="xMidYMid meet">
<metadata>
Created by potrace 1.14, written by Peter Selinger 2001-2017
</metadata>
<g transform="translate(0.000000,1080.000000) scale(0.100000,-0.100000)"
fill="#000000" stroke="none">
<path d="M5425 10470 c-5 -22 -14 -32 -33 -36 -119 -26 -186 -59 -251 -125
-79 -78 -118 -171 -123 -289 l-3 -65 58 -1 c65 -1 77 -11 72 -55 -3 -24 0 -28
23 -31 25 -3 27 -7 27 -48 0 -45 0 -45 35 -45 l35 0 -2 -70 c-1 -70 -11 -405
-18 -650 -3 -115 -13 -485 -20 -755 -1 -52 -3 -139 -4 -192 l-1 -98 -35 0
c-24 0 -35 -5 -35 -15 0 -8 -7 -15 -15 -15 -8 0 -15 -7 -15 -15 0 -12 -14 -15
-63 -15 l-64 0 -1 238 c0 130 -1 251 -1 268 l-1 31 -730 0 c-402 0 -733 -3
-735 -8 -6 -8 -9 -489 -4 -494 2 -2 2 -39 -1 -82 l-5 -78 -49 0 c-30 -1 -50 4
-53 12 -3 7 -14 13 -24 13 -17 0 -19 7 -18 63 2 120 4 115 -40 112 -40 -3 -55
3 -57 20 -3 15 -15 152 -20 220 -2 33 -6 70 -9 83 -3 13 2 36 12 52 16 27 16
32 2 45 -8 9 -33 19 -55 22 -21 4 -43 11 -49 17 -5 6 -10 38 -9 71 0 34 -5 67
-12 75 -13 16 -15 130 -3 130 12 0 24 -24 21 -42 -2 -10 3 -27 12 -39 8 -12
12 -28 9 -37 -4 -10 -2 -13 5 -8 8 5 12 -1 13 -16 1 -21 2 -20 14 7 7 16 11
41 9 55 -3 14 -6 38 -8 53 -6 46 -31 58 -116 53 -41 -2 -81 -5 -89 -7 -10 -3
-15 9 -17 41 -3 25 -8 57 -13 72 -5 15 -7 35 -4 46 3 15 -2 21 -22 26 -35 9
-42 2 -29 -32 8 -21 7 -36 -6 -65 -27 -60 -33 -62 -82 -34 -27 16 -63 27 -96
30 l-54 3 7 -45 c4 -25 8 -55 9 -66 1 -16 8 -20 36 -20 30 0 36 -4 45 -32 6
-17 19 -40 29 -52 19 -21 35 -80 33 -120 -2 -25 -60 -67 -77 -56 -5 3 -11 1
-15 -5 -3 -5 -15 -10 -25 -10 -25 0 -34 -33 -17 -65 9 -19 11 -43 6 -88 -4
-34 -10 -93 -13 -132 -11 -114 -18 -180 -21 -183 -1 -1 -38 -4 -81 -5 -76 -2
-79 -3 -76 -25 2 -15 -2 -22 -12 -22 -14 0 -16 -20 -16 -140 0 -128 -2 -140
-18 -140 -16 0 -18 15 -17 221 0 169 -3 223 -12 226 -7 3 -13 11 -13 19 0 11
-20 14 -91 14 -58 0 -88 -4 -84 -10 3 -6 -1 -13 -9 -16 -14 -5 -16 -43 -16
-305 0 -280 -1 -299 -18 -299 -16 0 -17 16 -17 220 l0 220 -112 0 -113 0 0
-250 c0 -243 -1 -250 -20 -250 -19 0 -20 7 -20 105 0 137 -6 145 -120 145 -64
0 -80 -3 -80 -15 0 -8 -6 -15 -14 -15 -11 0 -13 -38 -14 -202 0 -112 -1 -208
-1 -214 -1 -6 -27 -18 -58 -28 -100 -31 -366 -126 -410 -147 -24 -10 -46 -19
-49 -19 -14 0 -335 -143 -340 -151 -3 -5 5 -5 18 0 61 24 558 153 683 177 22
4 45 8 50 10 22 6 252 53 285 59 19 3 85 15 145 26 197 36 269 48 305 53 19 2
78 11 130 20 52 8 114 17 138 20 23 3 61 9 85 12 78 11 176 23 235 29 18 2 45
6 60 9 15 3 54 8 87 11 33 3 76 8 95 10 19 2 64 7 100 10 36 4 81 8 100 10 19
2 67 7 105 10 39 3 86 8 105 10 19 3 71 8 115 11 44 2 100 7 125 9 25 2 90 6
145 10 55 3 127 8 160 10 365 24 851 38 1325 38 447 -1 739 -8 1145 -29 77 -3
160 -8 185 -9 45 -2 212 -13 305 -21 28 -2 84 -6 125 -9 41 -3 91 -7 110 -10
32 -4 94 -10 220 -20 25 -2 63 -6 85 -9 22 -3 72 -8 110 -11 39 -3 77 -8 85
-10 8 -2 44 -7 80 -10 36 -3 76 -8 90 -10 23 -3 78 -10 158 -20 18 -2 50 -7
72 -10 22 -3 52 -8 67 -10 138 -18 418 -63 623 -101 47 -9 96 -18 110 -21 14
-2 90 -18 170 -35 80 -16 154 -32 165 -34 11 -2 29 -6 40 -8 11 -2 88 -21 170
-41 83 -21 161 -39 174 -42 14 -2 28 -6 33 -9 4 -3 17 -7 28 -10 18 -4 28 -6
78 -18 9 -3 54 -16 100 -29 45 -14 82 -23 82 -21 0 4 -60 31 -210 95 -63 27
-125 54 -137 59 -52 23 -73 31 -173 67 -57 21 -97 39 -87 41 10 2 16 12 15 25
0 12 2 184 6 382 l7 360 -35 101 c-19 56 -37 114 -40 130 -2 16 -5 34 -6 39
-1 6 -6 -1 -10 -15 -8 -24 -8 -24 -9 -2 -1 12 -6 22 -12 22 -5 0 -7 -4 -4 -10
3 -5 1 -10 -4 -10 -6 0 -11 10 -12 23 -1 21 -1 21 -9 -3 l-8 -25 -1 25 c-1 18
-4 21 -10 11 -7 -11 -10 -9 -16 8 -3 11 -11 21 -16 21 -5 0 -9 18 -9 39 0 22
-4 43 -10 46 -5 3 -10 14 -10 23 0 10 -8 29 -17 42 l-18 25 -6 -30 -7 -30 -1
32 c0 17 -5 34 -10 38 -6 3 -8 -6 -5 -20 2 -14 0 -25 -6 -25 -5 0 -11 15 -11
33 l-1 32 -8 -30 c-6 -22 -8 -25 -10 -10 -1 11 -2 23 -1 28 0 4 -4 7 -9 7 -6
0 -11 -10 -11 -22 -1 -19 -3 -17 -9 7 -6 25 -8 26 -9 7 0 -13 -5 -20 -11 -17
-6 4 -8 10 -6 14 3 4 1 13 -5 21 -7 12 -9 10 -9 -7 0 -13 -4 -23 -10 -23 -5 0
-10 9 -10 20 0 11 -7 20 -15 20 -9 0 -15 -7 -13 -16 2 -10 -3 -19 -9 -21 -8
-3 -13 4 -13 16 0 12 -5 21 -10 21 -6 0 -10 -7 -8 -16 2 -10 -3 -19 -11 -22
-9 -3 -11 1 -6 17 4 12 2 21 -4 21 -6 0 -11 -9 -11 -20 0 -20 -19 -29 -21 -10
-1 6 -2 14 -3 19 -3 23 -16 22 -16 -2 0 -14 -4 -29 -10 -32 -6 -4 -10 5 -10
19 0 16 -6 26 -15 26 -8 0 -14 -3 -12 -7 1 -5 -3 -9 -8 -11 -6 -1 -11 9 -13
23 -2 14 -11 29 -21 34 -15 8 -17 5 -15 -20 1 -19 -2 -29 -9 -26 -7 2 -12 18
-11 35 1 35 -13 44 -18 12 -4 -28 -22 -21 -22 9 -1 13 -6 26 -13 28 -7 3 -10
-6 -9 -22 2 -16 -1 -24 -8 -22 -6 2 -11 17 -11 33 0 22 -5 30 -22 32 -21 3
-21 7 -20 118 2 106 -2 129 -18 104 -3 -5 -18 -10 -33 -10 -38 -1 -62 -22 -55
-48 4 -17 10 -20 37 -16 17 3 37 7 44 10 13 4 17 -88 6 -170 -7 -50 -21 -61
-26 -21 -4 38 -22 35 -26 -3 -2 -20 -8 -32 -15 -29 -7 2 -11 14 -9 26 3 18 -1
22 -15 19 -11 -2 -18 -12 -18 -26 0 -12 -4 -22 -10 -22 -5 0 -9 10 -9 21 2 22
-30 24 -32 1 -1 -6 -2 -19 -3 -27 -2 -26 -21 -16 -21 11 0 37 -24 25 -28 -14
-4 -38 -19 -42 -24 -7 -5 40 -23 34 -26 -7 -2 -23 -8 -38 -16 -38 -9 0 -12 12
-11 36 2 28 0 34 -12 30 -8 -3 -19 -6 -23 -6 -17 0 -31 -81 -32 -176 0 -63 -4
-94 -12 -95 -6 0 -20 -2 -31 -5 -11 -2 -40 -6 -65 -10 -25 -3 -48 -8 -52 -11
-16 -9 -118 -14 -118 -6 0 5 -18 8 -40 6 -36 -3 -81 -23 -167 -75 -17 -10 -92
-37 -167 -59 l-135 -40 -20 20 c-11 11 -32 23 -46 27 -23 6 -25 10 -25 70 0
35 -4 64 -10 64 -5 0 -8 71 -7 180 1 99 0 180 -3 180 -3 0 -6 42 -6 93 -1 50
-4 115 -7 142 -3 28 -5 65 -6 83 -1 44 -16 40 -18 -5 -11 -203 -15 -294 -18
-388 -2 -60 -4 -117 -4 -125 -1 -8 0 -47 2 -87 3 -48 0 -73 -7 -76 -7 -3 -38
-4 -70 -3 -53 1 -89 -14 -73 -31 14 -14 -13 -40 -39 -37 -35 3 -39 9 -35 50 1
19 -2 34 -8 34 -7 0 -11 65 -10 203 1 111 0 204 -1 207 -2 3 -4 46 -5 95 -1
50 -5 131 -10 180 -5 50 -9 100 -9 112 -1 12 -4 19 -8 15 -9 -10 -21 -158 -22
-284 0 -60 -4 -108 -8 -108 -4 0 -4 -45 -1 -100 4 -67 2 -104 -6 -113 -6 -8
-8 -16 -5 -20 3 -3 8 -40 11 -82 3 -55 1 -75 -6 -70 -6 3 -9 10 -6 15 9 14
-16 68 -39 84 -17 11 -26 12 -34 4 -17 -17 -62 7 -62 32 0 13 -7 20 -18 20
-10 0 -26 14 -36 31 -22 37 -93 84 -141 93 -39 8 -44 13 -47 49 -1 14 -5 24
-9 21 -4 -2 -5 -12 -2 -22 6 -24 -11 -36 -70 -52 -49 -13 -131 -76 -142 -109
-3 -10 -13 -21 -23 -24 -9 -4 -32 -13 -50 -21 -18 -9 -30 -11 -27 -6 3 5 1 12
-5 15 -7 4 -10 42 -9 93 1 89 -5 226 -16 342 -6 66 -14 92 -16 49 0 -13 -2
-35 -4 -49 -6 -39 -18 -257 -20 -345 -1 -44 -3 -82 -4 -85 -5 -9 -11 -54 -16
-110 -3 -37 -11 -59 -23 -67 -9 -7 -23 -17 -29 -23 -7 -6 -13 -8 -13 -5 0 3
-9 1 -20 -5 -18 -9 -20 -8 -20 16 0 32 -12 25 -15 -8 -1 -13 -3 -28 -4 -35 0
-7 -14 -10 -33 -9 -47 4 -58 -2 -58 -35 0 -22 -5 -29 -19 -29 -10 0 -21 9 -24
20 -7 26 -36 37 -48 19 -5 -8 -11 -33 -15 -56 -5 -37 -10 -43 -30 -43 -16 0
-24 6 -25 18 -4 81 -2 112 8 145 10 31 10 41 0 51 -8 8 -11 34 -9 72 3 61 3
85 1 189 -1 33 1 71 3 85 3 14 2 30 -2 35 -4 6 -10 66 -14 135 -3 69 -8 134
-10 145 -3 11 -5 38 -5 59 -2 103 -18 -15 -27 -199 -4 -71 -10 -134 -14 -140
-4 -5 -6 -19 -3 -30 7 -35 10 -150 4 -160 -3 -5 -4 -52 -2 -102 2 -63 -1 -93
-8 -93 -11 0 -10 -34 2 -46 9 -10 9 -184 0 -185 -48 -5 -106 -2 -111 6 -3 5
-7 57 -8 115 -2 58 -5 184 -9 280 -3 96 -7 267 -10 380 -3 113 -7 273 -10 355
-15 510 -16 635 -3 636 7 1 23 1 36 2 20 0 22 5 22 48 0 46 2 49 25 49 23 0
25 4 25 40 l0 40 48 1 c76 2 77 2 80 33 6 46 -17 156 -44 213 -56 117 -205
225 -325 235 -20 2 -30 11 -40 35 -16 41 -25 42 -34 3z m-2668 -1700 c-1 -11
-5 -20 -9 -20 -3 0 -6 9 -5 20 1 11 5 20 9 20 3 0 6 -9 5 -20z m281 -148 c23
-41 23 -51 4 -98 l-13 -31 -87 0 -87 0 2 66 c1 36 2 69 2 74 1 4 11 7 22 7 18
0 19 -2 9 -15 -11 -13 -9 -15 13 -15 17 0 26 7 30 21 3 12 10 18 15 15 6 -3
21 -2 34 3 33 14 32 14 56 -27z m71 -18 c21 -26 28 -79 13 -99 -10 -14 -62
-19 -62 -5 0 6 7 26 15 46 10 24 11 42 5 59 -13 33 3 32 29 -1z m5501 -218 c0
-18 -5 -24 -20 -23 -37 3 -37 47 1 47 13 0 19 -7 19 -24z m-93 -12 c7 -18 -14
-35 -34 -27 -7 3 -13 14 -13 24 0 24 38 26 47 3z m-4871 -311 l-1 -308 -28 -1
c-16 -1 -31 4 -33 10 -2 6 -5 145 -6 309 l-3 297 36 0 37 0 -2 -307z m130 -1
l0 -308 -33 -1 c-24 0 -33 4 -34 16 -1 21 -1 561 0 584 1 12 10 17 34 17 l33
0 0 -308z m129 -2 l0 -305 -35 0 -35 0 0 300 c-1 165 1 304 3 308 2 4 18 7 35
5 l32 -3 0 -305z m128 8 c-1 -167 -2 -306 -2 -309 -1 -8 -61 -9 -62 -1 -4 19
-5 598 -2 605 2 4 19 7 36 7 l32 0 -2 -302z m128 295 c4 -32 3 -596 -1 -602
-3 -4 -19 -7 -36 -8 l-31 0 1 308 0 309 33 0 c18 0 33 -3 34 -7z m129 -301 l0
-309 -32 1 -33 1 -1 308 -2 307 34 0 34 0 0 -308z m130 -1 l0 -309 -35 1 -35
1 0 308 0 308 35 0 35 0 0 -309z m128 2 l-3 -308 -27 -2 c-15 -1 -30 2 -33 7
-5 7 -7 227 -6 503 l1 107 35 0 35 0 -2 -307z m128 0 l-1 -308 -32 -2 c-22 -1
-33 3 -34 13 0 8 0 34 0 59 0 25 0 158 0 295 l1 250 33 0 34 0 -1 -307z m129
10 c0 -164 -3 -303 -8 -310 -8 -12 -49 -14 -57 -2 -4 5 -5 595 -1 607 1 1 16
2 34 2 l32 0 0 -297z m126 285 c7 -71 2 -599 -6 -602 -6 -2 -21 -3 -35 -2
l-25 1 -1 300 c0 165 1 303 3 308 7 12 63 8 64 -5z"/>
<path d="M4828 7044 c-112 -146 -272 -357 -356 -468 -85 -110 -159 -206 -165
-213 -9 -9 -12 73 -14 345 -1 196 -2 405 -2 464 l-1 107 -52 -2 c-31 -1 -55
-7 -58 -14 -3 -7 -4 -178 -3 -380 2 -202 4 -652 6 -1000 1 -348 6 -635 10
-639 8 -8 95 -9 103 -1 3 3 5 92 4 199 -5 561 -5 788 1 788 4 0 62 -69 129
-152 67 -84 135 -169 150 -188 24 -29 179 -226 264 -335 13 -16 61 -77 105
-135 45 -58 97 -124 116 -146 l35 -42 131 2 132 1 78 240 c43 132 79 245 79
251 0 19 18 21 170 18 80 -1 275 -3 433 -5 181 -2 294 -7 302 -14 7 -5 48
-119 91 -251 l77 -242 59 0 c36 0 58 5 58 12 0 6 -27 92 -59 191 -73 221 -309
947 -512 1575 l-92 285 -62 2 -63 3 -30 -88 c-41 -120 -326 -975 -328 -987 -1
-5 -36 -111 -76 -235 -41 -124 -112 -341 -158 -482 -46 -142 -86 -258 -89
-258 -3 1 -27 29 -53 63 -69 91 -545 700 -670 857 -62 78 -104 139 -99 145 77
101 677 885 708 925 24 30 43 58 43 63 0 4 -31 7 -69 7 l-70 0 -203 -266z
m1298 -354 c36 -113 69 -216 74 -230 17 -47 180 -566 180 -572 0 -3 -87 -4
-192 -2 -106 2 -286 3 -400 4 -154 0 -208 3 -208 12 0 6 29 100 64 207 35 108
126 385 201 616 l137 419 40 -124 c22 -69 69 -217 104 -330z"/>
<path d="M3819 7246 c-3 -3 -25 -6 -49 -8 l-45 -3 3 -815 c2 -448 6 -818 9
-822 2 -5 0 -8 -5 -8 -5 0 -51 66 -102 148 -234 368 -569 868 -803 1195 -105
146 -123 167 -145 164 l-24 -3 2 -325 c1 -178 3 -497 5 -709 2 -212 4 -485 4
-606 l1 -222 58 2 57 1 -3 465 c-1 256 -4 604 -7 774 -3 183 -1 306 4 300 56
-57 603 -872 867 -1292 129 -204 163 -252 179 -250 20 3 20 10 17 578 -5 1221
-7 1429 -13 1434 -3 3 -8 4 -10 2z"/>
<path d="M6921 6758 c-2 -260 -4 -710 -6 -1000 l-2 -526 56 1 56 2 1 35 c1 19
2 188 3 376 l1 340 63 -2 c175 -7 342 -16 348 -20 4 -2 89 -122 190 -266 235
-337 309 -440 328 -455 9 -8 41 -12 83 -11 62 2 67 3 55 19 -123 172 -242 335
-247 339 -3 3 -20 28 -39 55 -19 28 -76 110 -128 183 -51 72 -93 134 -93 135
0 2 21 5 48 6 43 1 87 7 87 11 0 1 11 3 24 6 45 8 125 59 177 113 216 220 194
659 -45 900 -61 61 -160 125 -211 137 -11 2 -28 6 -37 8 -31 6 -127 21 -203
30 -19 2 -73 9 -120 15 -77 10 -107 13 -220 26 -19 2 -65 7 -101 10 l-65 7 -3
-474z m254 307 c39 -3 99 -10 135 -15 36 -5 92 -12 125 -15 33 -4 71 -8 85
-10 14 -2 45 -7 70 -10 201 -29 358 -245 360 -495 0 -175 -79 -325 -207 -391
-42 -21 -61 -24 -153 -24 -58 0 -170 4 -250 9 -133 8 -233 13 -286 15 -20 1
-20 3 -18 424 2 232 3 445 3 474 l1 52 33 -4 c17 -2 64 -6 102 -10z"/>
<path d="M1719 6913 l-56 -14 -52 -142 c-29 -78 -59 -156 -67 -174 -8 -17 -14
-33 -14 -36 0 -7 -207 -541 -225 -582 -8 -16 -43 -102 -78 -190 -36 -88 -88
-214 -117 -280 -29 -66 -58 -133 -65 -150 -6 -16 -19 -46 -27 -65 -9 -19 -14
-38 -12 -42 3 -4 30 -7 60 -6 51 2 56 5 69 33 18 40 109 259 130 313 14 34 22
42 44 44 14 0 37 2 51 3 14 2 79 5 145 9 66 4 147 8 180 10 159 10 329 18 410
20 l89 1 47 -120 c25 -66 63 -163 83 -217 l37 -96 60 0 c32 1 59 3 59 6 0 19
-394 1013 -513 1293 -41 96 -95 225 -121 287 -27 61 -51 112 -54 111 -4 -1
-32 -8 -63 -16z m81 -298 c34 -82 84 -202 110 -265 94 -226 223 -551 219 -554
-2 -2 -56 -7 -119 -10 -63 -4 -134 -9 -157 -11 -23 -2 -88 -6 -145 -10 -57 -4
-119 -9 -138 -10 -225 -17 -243 -17 -237 -3 57 136 228 585 352 926 21 57 41
100 45 95 4 -4 35 -75 70 -158z"/>
<path d="M8776 6787 c-33 -78 -69 -164 -82 -192 -39 -89 -314 -767 -386 -955
-23 -58 -61 -157 -85 -220 -25 -63 -51 -131 -58 -151 l-13 -36 60 -1 c69 0 55
-21 144 213 31 83 63 167 71 188 l15 38 107 -6 c233 -12 309 -16 386 -21 44
-2 123 -7 175 -9 164 -9 223 -14 230 -22 4 -5 40 -87 80 -183 40 -96 77 -180
82 -186 9 -13 118 -16 118 -4 0 4 -48 119 -106 256 -58 137 -146 350 -195 474
-49 124 -94 234 -99 245 -12 27 -164 426 -205 540 -54 149 -51 143 -92 153
-96 24 -81 36 -147 -121z m134 -21 c0 -8 13 -50 29 -93 179 -482 264 -708 322
-850 16 -39 29 -74 29 -78 0 -6 -78 -2 -240 10 -25 2 -85 6 -135 10 -49 3
-112 8 -140 10 -163 12 -252 18 -267 17 -10 0 -18 1 -18 4 0 6 228 569 293
724 98 234 110 260 118 260 5 0 9 -6 9 -14z"/>
<path d="M1549 4826 c-2 -2 -34 -6 -70 -10 -93 -8 -185 -39 -255 -84 -210
-136 -206 -450 9 -570 77 -44 113 -54 272 -79 135 -21 224 -47 259 -77 38 -34
46 -97 18 -142 -60 -95 -301 -112 -430 -30 -46 29 -90 79 -98 112 -3 13 -10
24 -16 24 -8 0 -218 -106 -226 -115 -2 -2 11 -31 28 -66 87 -172 261 -259 517
-257 233 1 404 82 476 225 60 117 48 290 -25 390 -69 93 -205 152 -413 178
-16 2 -52 7 -80 11 -27 4 -51 6 -53 5 -9 -5 -103 53 -112 68 -29 55 10 122 85
148 50 16 143 21 200 11 52 -9 131 -55 163 -94 l30 -36 98 52 c55 28 103 55
107 59 12 12 -25 79 -67 123 -75 79 -198 133 -327 143 -39 3 -75 8 -79 10 -4
2 -9 3 -11 1z"/>
<path d="M2233 4782 l-123 -3 0 -127 0 -127 185 2 185 2 1 -52 c0 -29 0 -247
0 -484 l1 -433 31 -1 c44 -1 142 -1 198 0 l45 1 0 476 c-1 262 1 480 4 484 3
4 77 8 165 8 88 0 170 1 183 1 22 1 22 3 22 126 l0 125 -142 0 c-79 1 -253 2
-388 3 -135 1 -300 1 -367 -1z"/>
<path d="M3586 4780 l-49 -5 -83 -185 c-46 -102 -94 -210 -108 -240 -14 -30
-37 -82 -51 -115 -15 -33 -33 -73 -41 -90 -67 -144 -261 -581 -259 -583 5 -6
286 -4 292 2 3 3 27 52 53 108 l46 103 291 3 291 2 48 -110 49 -110 60 -1
c176 -2 226 -1 231 4 3 3 -3 25 -14 49 -11 23 -29 64 -41 91 -11 26 -31 68
-42 94 -120 267 -213 473 -224 498 -72 161 -217 480 -220 483 -5 6 -178 7
-229 2z m104 -360 c0 -6 9 -29 20 -53 29 -64 140 -319 140 -323 0 -2 -78 -4
-174 -4 l-174 0 13 28 c7 15 27 61 45 102 18 41 44 100 57 130 14 30 32 72 40
93 14 34 33 50 33 27z"/>
<path d="M4444 4779 c-2 -4 -3 -279 -3 -613 l1 -606 46 -1 c53 -1 176 -1 208
0 21 1 21 4 20 196 l-1 195 95 0 95 0 60 -72 c33 -40 71 -84 85 -99 14 -15 45
-50 70 -79 25 -30 63 -73 85 -97 l40 -44 105 0 c197 -1 187 -3 182 29 -4 27
-36 67 -206 255 -93 104 -116 131 -116 137 0 3 23 16 52 29 189 87 265 320
174 535 -50 119 -191 216 -336 232 -76 8 -651 10 -656 3z m670 -278 c55 -27
80 -71 81 -143 0 -65 -20 -100 -76 -133 -30 -17 -54 -20 -216 -21 -163 -2
-183 0 -184 15 0 9 -2 80 -2 158 -2 135 -1 142 18 145 11 2 91 2 178 1 136 -2
165 -5 201 -22z"/>
<path d="M5703 4782 l-172 -2 0 -128 1 -127 181 2 c100 1 184 -2 187 -7 3 -5
5 -223 5 -484 l0 -476 35 -1 c41 -1 148 -1 202 0 l37 1 0 383 c0 210 1 428 1
483 l0 101 173 1 c94 0 178 1 185 1 9 1 12 33 12 126 l0 125 -252 0 c-139 1
-291 2 -338 3 -47 1 -162 1 -257 -1z"/>
<path d="M8781 4780 l-95 -5 0 -598 c-1 -330 2 -604 6 -610 5 -9 65 -11 243
-8 l30 1 -2 172 -3 173 178 0 c195 -1 274 11 352 50 364 184 285 742 -115 816
-63 12 -435 17 -594 9z m567 -280 c46 -21 78 -58 94 -111 24 -83 -25 -188
-103 -218 -14 -5 -104 -10 -201 -11 l-175 -1 -1 179 0 180 173 0 c143 -1 181
-4 213 -18z"/>
<path d="M7398 4768 c-7 -22 -2 -751 6 -801 22 -154 127 -302 263 -371 143
-72 362 -81 508 -19 156 66 268 215 293 389 3 27 7 220 7 429 l0 380 -135 0
-135 0 -1 -380 c-1 -250 -5 -394 -12 -421 -18 -61 -66 -127 -114 -154 -37 -22
-55 -25 -138 -25 -86 0 -99 3 -143 28 -26 16 -61 46 -76 68 -50 68 -55 110
-55 517 l0 372 -132 0 c-97 0 -133 -3 -136 -12z"/>
<path d="M6548 4074 c-2 -64 1 -118 5 -121 7 -4 406 -7 615 -4 l52 1 0 120 0
120 -334 0 -335 0 -3 -116z"/>
<path d="M2675 3339 c-36 -10 -55 -34 -55 -70 0 -57 59 -90 112 -63 33 17 45
54 28 93 -14 36 -46 50 -85 40z"/>
<path d="M9675 3339 c-81 -23 -71 -131 13 -143 67 -9 109 76 60 121 -33 29
-40 31 -73 22z"/>
<path d="M8488 3085 c-2 -3 -20 -7 -40 -9 -237 -31 -425 -171 -454 -341 -31
-175 18 -296 151 -377 40 -24 161 -75 193 -81 9 -2 37 -9 62 -16 25 -7 52 -14
60 -16 129 -26 324 -68 355 -76 22 -6 47 -12 55 -14 51 -10 182 -70 222 -102
113 -91 144 -253 76 -390 -78 -156 -341 -249 -628 -223 -201 19 -414 133 -508
273 -13 20 -27 37 -29 37 -9 0 -63 -34 -63 -40 0 -3 21 -33 48 -65 143 -179
367 -277 632 -279 135 -1 195 6 280 29 30 9 62 17 70 19 67 16 187 99 231 159
60 82 73 127 73 257 0 83 -4 102 -27 151 -57 118 -187 200 -407 257 -98 26
-233 55 -305 67 -108 18 -275 72 -341 110 -99 58 -142 144 -130 258 17 161
122 265 321 318 115 30 336 30 450 0 112 -30 198 -75 270 -142 l60 -57 22 26
21 26 -21 26 c-34 41 -124 107 -191 140 -105 52 -204 72 -362 76 -78 1 -144 1
-146 -1z"/>
<path d="M1146 3072 c-13 -3 -16 -12 -14 -35 l3 -32 515 -2 c283 -1 521 -2
528 -2 7 -1 -16 -40 -51 -88 -36 -49 -114 -158 -176 -243 -61 -85 -117 -164
-125 -175 -8 -11 -86 -119 -173 -240 -87 -121 -203 -282 -258 -358 -55 -77
-113 -158 -130 -181 -16 -24 -74 -104 -128 -179 -54 -76 -96 -141 -93 -145 3
-5 291 -9 640 -9 l634 0 0 38 1 38 -557 0 c-306 0 -565 0 -574 1 -16 0 73 128
491 705 64 88 129 179 146 203 16 23 135 189 264 367 128 179 231 328 228 332
-7 6 -1139 11 -1171 5z"/>
<path d="M2669 3071 c-12 -5 -14 -121 -14 -848 l0 -843 37 2 38 1 0 842 0 843
-23 4 c-13 3 -30 2 -38 -1z"/>
<path d="M3252 3069 c-16 -6 -17 -67 -16 -845 l0 -839 39 0 38 0 1 330 1 330
257 1 258 1 103 -111 c57 -61 116 -124 131 -141 16 -16 71 -77 124 -134 54
-57 105 -113 115 -125 10 -12 48 -51 84 -88 58 -60 70 -68 104 -68 21 0 40 3
43 8 2 4 -21 35 -52 68 -95 100 -297 317 -327 349 -15 17 -68 74 -119 128 -50
54 -93 103 -94 108 -2 6 11 9 30 7 144 -11 318 57 406 159 76 87 112 188 117
327 8 266 -150 474 -400 526 -62 13 -811 21 -843 9z m868 -91 c152 -51 257
-170 291 -328 14 -66 6 -199 -16 -260 -46 -129 -143 -213 -290 -252 -37 -9
-146 -13 -420 -13 l-370 0 -1 430 c-1 237 1 433 3 437 2 4 173 6 381 4 304 -3
386 -6 422 -18z"/>
<path d="M4727 3072 c-12 -2 -17 -10 -14 -20 3 -10 102 -253 222 -542 352
-853 371 -900 416 -1010 50 -125 52 -127 81 -124 13 1 32 3 44 3 14 1 24 11
31 34 10 31 370 910 397 972 8 17 49 116 91 220 129 319 175 429 185 446 7 13
4 18 -13 21 -60 10 -59 11 -166 -250 -56 -136 -201 -491 -324 -790 -122 -299
-226 -543 -231 -543 -5 0 -19 26 -32 58 -13 32 -158 386 -322 788 -319 777
-305 750 -365 737z"/>
<path d="M6563 3072 l-33 -3 0 -843 0 -843 590 0 590 0 0 38 0 38 -546 0
c-300 0 -548 2 -551 5 -4 4 -7 632 -4 719 1 16 32 17 506 17 278 0 505 3 506
8 7 52 5 60 -15 64 -12 1 -241 3 -511 2 l-490 0 1 360 1 361 524 2 c288 2 529
5 535 7 9 3 11 34 5 66 -1 5 -1054 7 -1108 2z"/>
<path d="M9667 3070 c-10 -4 -13 -181 -13 -847 l0 -843 38 2 38 1 0 846 0 846
-25 0 c-14 0 -31 -2 -38 -5z"/>
<path d="M4822 1014 c-38 -19 -68 -58 -78 -100 l-7 -29 30 28 c42 39 88 40
121 2 21 -25 24 -35 19 -78 -7 -58 -33 -104 -116 -209 -34 -43 -61 -80 -61
-83 0 -3 62 -5 139 -5 l139 0 6 33 c4 17 9 50 12 72 l5 40 -23 -26 c-20 -23
-31 -26 -95 -28 -40 -1 -73 2 -73 6 0 5 15 22 33 39 76 70 137 172 137 231 0
87 -107 147 -188 107z"/>
<path d="M5245 1018 c-93 -50 -133 -193 -95 -342 33 -133 129 -181 219 -108
66 54 93 221 55 346 -9 29 -51 84 -75 96 -30 16 -82 20 -104 8z m76 -34 c10
-12 13 -63 13 -204 0 -196 -5 -220 -44 -220 -39 0 -45 25 -46 204 -1 198 6
236 40 236 13 0 29 -7 37 -16z"/>
<path d="M5614 1009 c-31 -20 -74 -82 -74 -105 0 -13 5 -11 26 10 15 14 32 26
38 27 6 0 20 2 30 4 11 2 31 -8 47 -25 57 -56 32 -139 -86 -287 -36 -46 -65
-85 -65 -88 0 -3 62 -5 139 -5 l138 0 12 57 c16 83 15 90 -13 60 -22 -24 -31
-26 -95 -25 -39 1 -71 3 -71 5 0 2 16 21 36 41 86 87 134 171 134 231 0 89
-120 150 -196 100z"/>
<path d="M6080 1018 c-14 -5 -47 -14 -75 -20 l-50 -11 33 -9 c19 -5 32 -15 33
-26 4 -48 4 -340 1 -359 -3 -13 -18 -27 -40 -36 -36 -15 -33 -15 88 -15 109 0
121 1 92 11 -18 7 -37 19 -42 27 -5 8 -9 111 -9 228 0 118 -1 215 -3 217 -2 1
-14 -2 -28 -7z"/>
<path d="M4500 811 c-5 -11 -10 -26 -10 -34 0 -8 -8 -16 -17 -19 -10 -2 -838
-3 -1840 -3 -1283 0 -1823 -3 -1823 -10 0 -8 541 -11 1828 -10 1005 0 1833 -1
1840 -3 6 -2 12 -12 12 -21 0 -28 23 -52 40 -41 10 6 15 28 17 67 2 81 -22
119 -47 74z"/>
<path d="M6480 809 c-25 -45 -7 -156 23 -146 7 2 17 19 23 37 l11 34 1764 2
c970 0 1768 2 1772 3 5 0 6 5 3 9 -2 4 -799 7 -1771 7 -1673 0 -1767 1 -1776
18 -5 9 -7 17 -4 17 3 0 1 9 -5 20 -14 26 -26 25 -40 -1z"/>
</g>
</svg>
