<svg xmlns="http://www.w3.org/2000/svg" viewBox="0 0 1110.41 257.32"><defs><style>.cls-1{fill:#353535;}.cls-2{fill:#93338c;}.cls-3{fill:#ffc254;}.cls-4{fill:#f35181;}.cls-5{fill:#f98e4a;}.cls-6{fill:#285ea4;}.cls-7{fill:#0084bc;}.cls-8{fill:#00b18a;}</style></defs><g id="Layer_2" data-name="Layer 2"><g id="Layer_1-2" data-name="Layer 1"><path class="cls-1" d="M383.6,128.29c0,33.89-24.92,58.47-59.26,58.47H283.15V69.91h41.19c34.39,0,59.26,24.54,59.26,58.38m-19.6,0c0-23.57-16.59-40.49-40.21-40.49H302.32v81.08h21.47c23.62,0,40.21-17.07,40.21-40.59"/><path class="cls-1" d="M495.08,96.57v90.15H480.14l-1.81-11C470.17,184,458.78,189,445.64,189c-26.85,0-46.93-20.29-46.93-47.31s20.08-47.22,46.93-47.22c13.29,0,24.79,5,33,13.42l2.17-11.28Zm-18.57,45.08c0-17-12.42-29.58-29.41-29.58s-29.53,12.7-29.53,29.58,12.54,29.57,29.53,29.57,29.41-12.58,29.41-29.57"/><path class="cls-1" d="M573,169.93v16.83H559.2c-19.75,0-31.93-12.18-31.93-32.1V112.49H511.15v-3.58L542.5,75.58h3.15v21h26.82v15.87H545.8V153.2c0,10.75,6,16.73,16.89,16.73Z"/><path class="cls-1" d="M681.7,96.57v90.15H666.76l-1.81-11C656.79,184,645.4,189,632.26,189c-26.85,0-46.93-20.29-46.93-47.31s20.08-47.22,46.93-47.22c13.29,0,24.79,5,33,13.42l2.16-11.28Zm-18.57,45.08c0-17-12.42-29.58-29.41-29.58s-29.53,12.7-29.53,29.58,12.54,29.57,29.53,29.57,29.41-12.58,29.41-29.57"/><path class="cls-1" d="M809.93,94.57c19,0,31.83,14.45,31.83,34.87v57.32H823.23V134c0-14.51-6.31-22.8-17.53-22.8-12,0-21.14,10.93-21.14,26.28v49.29h-18.1V134c0-14.51-6.26-22.8-17.56-22.8-12,0-21.23,10.93-21.23,26.28v49.29H709.14V96.62h13.13l3.19,11.65a36.08,36.08,0,0,1,28-13.7c12.22,0,21.9,6,27,15.78a35.65,35.65,0,0,1,29.41-15.78Z"/><path class="cls-1" d="M867.58,63.54h19.14V82.65H867.58Zm.3,33.08h18.53v90.14H867.88Z"/><path class="cls-1" d="M961.5,94.57c21.08,0,34.24,15.71,34.24,37.92v54.27H977.21V136.25c0-16.37-7.12-25.06-20.68-25.06-14.16,0-24.21,11.39-24.21,27.31v48.26H913.79V96.62H926.7l3.6,12.58c6.82-9.09,18-14.63,31.2-14.63Z"/><path class="cls-1" d="M1110.41,64.31V186.77h-14L1094,176.54A45.22,45.22,0,0,1,1062.19,189c-27.26,0-46.86-20.3-46.86-47.32s19.6-47.26,46.86-47.26a45.59,45.59,0,0,1,29.69,10.48V64.31Zm-46.77,107c17,0,29.53-12.82,29.53-29.58s-12.53-29.57-29.53-29.57-29.4,12.58-29.4,29.57,12.41,29.58,29.4,29.58Z"/><polygon class="cls-2" points="0 64.33 0 64.33 111.42 128.66 222.84 64.33 111.42 0 0 64.33"/><polygon class="cls-3" points="0 192.99 0 192.99 111.42 257.32 222.84 192.99 111.42 128.66 0 192.99"/><path class="cls-4" d="M140.13,60.66A28.71,28.71,0,1,1,111.42,32a28.7,28.7,0,0,1,28.71,28.71"/><polygon class="cls-5" points="111.42 128.66 111.42 128.66 222.84 192.99 222.84 64.33 111.42 128.66"/><polygon class="cls-6" points="111.42 128.66 111.42 128.66 0 192.99 0 64.33 111.42 128.66"/><polygon class="cls-7" points="40.66 87.81 40.66 169.51 111.42 128.66 40.66 87.81"/><polygon class="cls-8" points="172.52 222.04 61.1 157.72 0 192.99 111.42 257.32 172.52 222.04"/><polygon class="cls-4" points="111.42 257.32 111.42 186.77 172.52 222.04 111.42 257.32"/><polygon class="cls-4" points="111.42 128.66 111.42 0 222.84 64.33 111.42 128.66"/><path class="cls-2" d="M140.13,60.66A28.71,28.71,0,0,0,111.42,32V89.36a28.7,28.7,0,0,0,28.71-28.7"/></g></g></svg>